<svg width="18" height="18" viewBox="0 0 18 18" fill="none" xmlns="http://www.w3.org/2000/svg">
<path d="M8.94237 0C4.01144 0 0 4.01144 0 8.9421C0 13.873 4.01144 17.8845 8.94237 17.8845C13.8733 17.8845 17.8847 13.873 17.8847 8.9421C17.8847 4.01144 13.8733 0 8.94237 0ZM14.7799 4.4604C15.7328 5.69606 16.2661 7.20379 16.3019 8.76378C14.4356 8.47394 12.7794 8.51576 11.3273 8.77378C11.0923 8.22319 10.842 7.67925 10.5767 7.14258C12.0748 6.50689 13.5372 5.64132 14.7799 4.4604ZM13.6881 3.31762C12.5682 4.37966 11.224 5.15896 9.83687 5.73074C8.77404 3.81155 7.7625 2.4126 7.27225 1.77112C7.81964 1.64307 8.37993 1.5783 8.9421 1.57806C10.7495 1.57806 12.4054 2.23349 13.6881 3.31762ZM5.98428 2.20009L5.75257 2.39103C5.77703 2.42075 6.98636 3.91176 8.31824 6.27544C5.57215 7.12444 2.921 7.27435 1.76585 7.2946C2.29082 5.00904 3.88072 3.12694 5.98428 2.20009ZM1.57806 8.9421C1.57806 8.92027 1.57938 8.89871 1.57964 8.87688C2.7482 8.87504 5.85357 8.75747 9.07808 7.7028C9.31807 8.18147 9.54582 8.66618 9.76112 9.15646C6.23309 10.2493 4.15794 12.5659 3.32209 13.6931C2.23533 12.4099 1.57806 10.7516 1.57806 8.9421ZM4.46803 14.7859C5.05323 13.9227 6.90035 11.6011 10.3518 10.6025C10.9502 12.1961 11.4368 13.9377 11.6685 15.7507L11.7826 15.7359C10.8833 16.1134 9.91767 16.3074 8.94237 16.3064C7.32392 16.3077 5.75059 15.7731 4.46803 14.7859ZM13.1508 14.9798C12.8931 13.3183 12.4512 11.7316 11.9175 10.2661C13.1637 10.0859 14.5784 10.082 16.1715 10.3413C15.8022 12.2531 14.6915 13.9028 13.1508 14.9798Z" fill="#A9A9A9"/>
</svg>
