<svg xmlns="http://www.w3.org/2000/svg" width="32" height="32" fill="none"><path fill="#484E53" d="M16 0C7.178 0 0 7.178 0 16c0 8.823 7.178 16 16 16s16-7.177 16-16c0-8.822-7.178-16-16-16m0 30.422c-7.952 0-14.422-6.47-14.422-14.422S8.048 1.578 16 1.578 30.422 8.048 30.422 16 23.952 30.422 16 30.422"/><path fill="#484E53" d="M20.927 6.611h-3.47l-.024.001c-3.504.011-3.962 2.458-3.964 4.597a.3.3 0 0 0-.007.062v1.5h-2.398a.263.263 0 0 0-.263.264v3.702a.263.263 0 0 0 .263.263h2.398v8.125a.263.263 0 0 0 .263.263h3.5a.263.263 0 0 0 .263-.263V17h3.439a.263.263 0 0 0 .263-.262v-3.703a.263.263 0 0 0-.263-.263h-3.702v-1.99h3.702a.263.263 0 0 0 .263-.263V6.874a.263.263 0 0 0-.263-.263"/></svg>