<svg width="15" height="15" viewBox="0 0 15 15" fill="none" xmlns="http://www.w3.org/2000/svg">
<path d="M7.14899 14.7699L0.339645 3.35843C0.161264 3.05934 0.0476132 2.69545 0.012012 2.30939C-0.0235893 1.92333 0.0203325 1.5311 0.138631 1.17866C0.256929 0.826211 0.444705 0.528149 0.679953 0.319399C0.915201 0.110648 1.18818 -0.000145881 1.4669 1.4416e-07H13.5349C13.8135 0.000340384 14.0862 0.111487 14.3212 0.320429C14.5562 0.529371 14.7437 0.827462 14.8618 1.17981C14.9798 1.53217 15.0236 1.9242 14.9879 2.31003C14.9523 2.69585 14.8386 3.05951 14.6604 3.35843L7.85284 14.7699C7.80984 14.8419 7.75602 14.8999 7.69521 14.9396C7.63439 14.9794 7.56807 15 7.50092 15C7.43377 15 7.36744 14.9794 7.30663 14.9396C7.24581 14.8999 7.192 14.8419 7.14899 14.7699Z" fill="#8987A1"/>
</svg>
