<svg xmlns="http://www.w3.org/2000/svg" width="48" height="48"><path d="M0 0h48v48H0V0z" fill="#0303AA"/><path d="m25.438 4.688 3.87-.051c4.731.465 8.087 1.865 11.567 5.113C42.509 13.018 42.374 15.387 42 19c-1.54 4.621-3.575 7.053-7.95 9.32-3.644 1.208-7.263.99-11.05.68-.09 1.39-.09 1.39-.184 2.809l-.253 3.628-.247 3.622C22 42 22 42 21 43c-2.67.141-5.324.042-8 0 .39-5.657 1.408-10.63 3.063-16.063C17.648 21.668 18.32 17.462 18 12c1-1 1-1 2.848-1.098L27 11a1135.59 1135.59 0 0 1-.438 4.75c-.08.882-.162 1.763-.246 2.672A44.11 44.11 0 0 1 25 25c4.167-.223 4.167-.223 7.375-2.563.952-3.711.992-6.588.625-10.437-2.136-2.17-3.542-2.922-6.55-3.434C20.05 8.557 16.241 9.272 11 13c-.2 3.716-.152 4.772 2 8l-1 2c-1.875-.313-1.875-.313-4-1-2-3-2-3-2-6.375C7.28 10.987 9.056 9.655 13 7c4.19-2.092 7.78-2.298 12.438-2.313z" fill="#EFEFF9"/><path d="M18 8c9.7-.612 9.7-.612 14.188 1.5 2.096 2.892 2.416 4.972 2.164 8.527C33.82 21.007 33.078 22.784 31 25c-3.188.313-3.188.313-6 0 .964-9.41.964-9.41 2-14l-2.813.188C21 11 21 11 19.302 9.488 18.87 8.998 18.442 8.506 18 8z" fill="#1111AF"/><path d="M18 7v2l-3.375 1.75C11.668 12.423 10.077 13.65 9 17c-.2-3.587-.068-6.001 2-9 2.955-2.002 3.496-2.168 7-1z" fill="#DEDEF4"/></svg>